
<svg stroke-dasharray="none" shape-rendering="auto"
     xmlns="http://www.w3.org/2000/svg" font-family="Helvetica"
     text-rendering="auto" width="448" fill-opacity="1"
     contentScriptType="text/ecmascript" color-interpolation="auto"
     color-rendering="auto" preserveAspectRatio="xMidYMid meet" font-size="12"
     viewBox="0 0 448 111" fill="black"
     xmlns:xlink="http://www.w3.org/1999/xlink" stroke="black"
     image-rendering="auto" stroke-miterlimit="10" zoomAndPan="magnify"
     version="1.0" stroke-linecap="square" stroke-linejoin="miter"
     contentStyleType="text/css" font-style="normal" stroke-width="1"
     height="111" stroke-dashoffset="0" font-weight="normal" stroke-opacity="1">
    <!--Generated by the Batik Graphics2D SVG Generator-->
    <defs id="genericDefs"/>
    <g>
        <defs id="defs1">
            <linearGradient x1="10" xmlns:xlink="http://www.w3.org/1999/xlink"
                            gradientUnits="userSpaceOnUse" y1="10" x2="436"
                            y2="10" xlink:type="simple" xlink:actuate="onLoad"
                            id="linearGradient1" xlink:show="other"
                            spreadMethod="pad">
                <stop stop-opacity="1" stop-color="white" offset="0%"/>
                <stop stop-opacity="1" stop-color="white" offset="100%"/>
            </linearGradient>
            <clipPath clipPathUnits="userSpaceOnUse" id="clipPath1">
                <path d="M9 9 L439 9 L439 102 L9 102 L9 9 Z"/>
            </clipPath>
            <clipPath clipPathUnits="userSpaceOnUse" id="clipPath2">
                <path d="M9 9 L437 9 L437 100 L9 100 L9 9 Z"/>
            </clipPath>
            <clipPath clipPathUnits="userSpaceOnUse" id="clipPath3">
                <path d="M73 14 L372 14 L372 35 L73 35 L73 14 Z"/>
            </clipPath>
            <clipPath clipPathUnits="userSpaceOnUse" id="clipPath4">
                <path d="M73 14 L375 14 L375 35 L73 35 L73 14 Z"/>
            </clipPath>
            <clipPath clipPathUnits="userSpaceOnUse" id="clipPath5">
                <path d="M14 40 L107 40 L107 61 L14 61 L14 40 Z"/>
            </clipPath>
            <clipPath clipPathUnits="userSpaceOnUse" id="clipPath6">
                <path d="M14 40 L110 40 L110 61 L14 61 L14 40 Z"/>
            </clipPath>
            <clipPath clipPathUnits="userSpaceOnUse" id="clipPath7">
                <path d="M14 59 L411 59 L411 80 L14 80 L14 59 Z"/>
            </clipPath>
            <clipPath clipPathUnits="userSpaceOnUse" id="clipPath8">
                <path d="M14 59 L414 59 L414 80 L14 80 L14 59 Z"/>
            </clipPath>
            <clipPath clipPathUnits="userSpaceOnUse" id="clipPath9">
                <path d="M14 78 L373 78 L373 99 L14 99 L14 78 Z"/>
            </clipPath>
            <clipPath clipPathUnits="userSpaceOnUse" id="clipPath10">
                <path d="M14 78 L376 78 L376 99 L14 99 L14 78 Z"/>
            </clipPath>
            <clipPath clipPathUnits="userSpaceOnUse" id="clipPath11">
                <path d="M10 38 L436 38 L436 99 L10 99 L10 38 Z"/>
            </clipPath>
        </defs>
        <g font-size="16" fill="rgb(131,122,133)"
           font-family="&apos;Ubuntu&apos;" stroke-linejoin="round"
           stroke="rgb(131,122,133)" stroke-width="0" stroke-miterlimit="0">
            <rect x="11" y="11" clip-path="url(#clipPath1)" width="426" rx="0"
                  height="89" ry="0" opacity="0.2549" stroke="none"/>
            <rect x="12" y="12" clip-path="url(#clipPath1)" width="426" rx="0"
                  height="89" ry="0" opacity="0.2549" stroke="none"/>
            <rect x="10" y="10" clip-path="url(#clipPath2)"
                  fill="url(#linearGradient1)" width="426" rx="0" height="89"
                  ry="0" stroke="none"/>
        </g>
        <g font-size="16" stroke-width="1.1" font-family="&apos;Ubuntu&apos;"
           stroke-linecap="butt">
            <rect x="10" y="10" clip-path="url(#clipPath2)" fill="none"
                  width="425" rx="0" height="88" ry="0"/>
            <svg contentScriptType="text/ecmascript" zoomAndPan="magnify"
                 xmlns:rdf="http://www.w3.org/1999/02/22-rdf-syntax-ns#"
                 xmlns:xlink="http://www.w3.org/1999/xlink"
                 xmlns:svg="http://www.w3.org/2000/svg"
                 contentStyleType="text/css" id="Capa_1replaced0" version="1.1"
                 xml:space="preserve" width="16"
                 xmlns:dc="http://purl.org/dc/elements/1.1/"
                 xmlns:cc="http://creativecommons.org/ns#"
                 preserveAspectRatio="xMidYMid meet"
                 viewBox="0 0 15.999999 15.999999" height="16"
                 xmlns="http://www.w3.org/2000/svg" x="74" y="16">
                <metadata id="metadata5519replaced0">
                    <rdf:RDF>
                        <cc:Work rdf:about="">
                            <dc:format>image/svg+xml</dc:format><dc:type rdf:resource="http://purl.org/dc/dcmitype/StillImage"/>
                            <dc:title/></cc:Work></rdf:RDF></metadata>
                <defs id="defs5517replaced0"/>
                <g id="g5482replaced0" style="fill:#000000"
                   transform="scale(0.11226967)">
                    <g style="fill:#000000" id="g5480replaced0">
                        <path id="path5476replaced0"
                              d="m 34.367,142.514 c 11.645,0 17.827,-10.4 19.645,-16.544 0.029,-0.097 0.056,-0.196 0.081,-0.297 4.236,-17.545 10.984,-45.353 15.983,-65.58 h 17.886 c 3.363,0 6.09,-2.726 6.09,-6.09 0,-3.364 -2.727,-6.09 -6.09,-6.09 H 73.103 c 1.6,-6.373 2.771,-10.912 3.232,-12.461 l 0.512,-1.734 c 1.888,-6.443 6.309,-21.535 13.146,-21.535 6.34,0 7.285,9.764 7.328,10.236 0.27,3.343 3.186,5.868 6.537,5.579 3.354,-0.256 5.864,-3.187 5.605,-6.539 C 108.894,14.036 104.087,0 89.991,0 74.03,0 68.038,20.458 65.159,30.292 l -0.49,1.659 c -0.585,1.946 -2.12,7.942 -4.122,15.962 H 39.239 c -3.364,0 -6.09,2.726 -6.09,6.09 0,3.364 2.726,6.09 6.09,6.09 H 57.53 c -6.253,25.362 -14.334,58.815 -15.223,62.498 -0.332,0.965 -2.829,7.742 -7.937,7.742 -7.8,0 -11.177,-10.948 -11.204,-11.03 -0.936,-3.229 -4.305,-5.098 -7.544,-4.156 -3.23,0.937 -5.092,4.314 -4.156,7.545 2.131,7.361 9.35,19.822 22.901,19.822 z"
                              style="fill:#000000"/>
                        <path id="path5478replaced0"
                              d="m 124.685,126.809 c 3.589,0 6.605,-2.549 6.605,-6.607 0,-1.885 -0.754,-3.586 -2.359,-5.474 l -12.646,-14.534 12.271,-14.346 c 1.132,-1.416 1.98,-2.926 1.98,-4.908 0,-3.59 -2.927,-6.231 -6.703,-6.231 -2.547,0 -4.527,1.604 -6.229,3.684 L 108.073,90.847 98.73,78.391 c -1.89,-2.357 -3.869,-3.682 -6.7,-3.682 -3.59,0 -6.607,2.551 -6.607,6.609 0,1.885 0.756,3.586 2.357,5.471 l 11.799,13.592 -12.932,15.289 c -1.227,1.416 -1.98,2.926 -1.98,4.908 0,3.589 2.926,6.229 6.699,6.229 2.549,0 4.53,-1.604 6.229,-3.682 l 10.19,-13.4 10.193,13.4 c 1.894,2.363 3.876,3.684 6.707,3.684 z"
                              style="fill:#000000"/></g></g>
                <g id="g5484replaced0"
                   transform="translate(-11.224002,-126.514)"/>
                <g id="g5486replaced0"
                   transform="translate(-11.224002,-126.514)"/>
                <g id="g5488replaced0"
                   transform="translate(-11.224002,-126.514)"/>
                <g id="g5490replaced0"
                   transform="translate(-11.224002,-126.514)"/>
                <g id="g5492replaced0"
                   transform="translate(-11.224002,-126.514)"/>
                <g id="g5494replaced0"
                   transform="translate(-11.224002,-126.514)"/>
                <g id="g5496replaced0"
                   transform="translate(-11.224002,-126.514)"/>
                <g id="g5498replaced0"
                   transform="translate(-11.224002,-126.514)"/>
                <g id="g5500replaced0"
                   transform="translate(-11.224002,-126.514)"/>
                <g id="g5502replaced0"
                   transform="translate(-11.224002,-126.514)"/>
                <g id="g5504replaced0"
                   transform="translate(-11.224002,-126.514)"/>
                <g id="g5506replaced0"
                   transform="translate(-11.224002,-126.514)"/>
                <g id="g5508replaced0"
                   transform="translate(-11.224002,-126.514)"/>
                <g id="g5510replaced0"
                   transform="translate(-11.224002,-126.514)"/>
                <g id="g5512replaced0"
                   transform="translate(-11.224002,-126.514)"/></svg>
            <text x="93" xml:space="preserve" y="30" clip-path="url(#clipPath4)"
                  stroke="none">intensity(gs: Seq(GasSensor)): Intensity</text>
            <svg contentScriptType="text/ecmascript" zoomAndPan="magnify"
                 xmlns:rdf="http://www.w3.org/1999/02/22-rdf-syntax-ns#"
                 xmlns:xlink="http://www.w3.org/1999/xlink"
                 xmlns:svg="http://www.w3.org/2000/svg"
                 contentStyleType="text/css" id="Capa_1replaced1" version="1.1"
                 xml:space="preserve" width="16"
                 xmlns:dc="http://purl.org/dc/elements/1.1/"
                 xmlns:cc="http://creativecommons.org/ns#"
                 preserveAspectRatio="xMidYMid meet" viewBox="0 0 16.000001 16"
                 height="16" xmlns="http://www.w3.org/2000/svg" x="15" y="42">
                <metadata id="metadata39replaced1">
                    <rdf:RDF>
                        <cc:Work rdf:about="">
                            <dc:format>image/svg+xml</dc:format><dc:type rdf:resource="http://purl.org/dc/dcmitype/StillImage"/>
                            <dc:title/></cc:Work></rdf:RDF></metadata>
                <defs id="defs37replaced1"/>
                <path id="path2replaced1"
                      d="m 13.700952,0.043429 c -0.125333,-0.06514 -0.276571,-0.05638 -0.393524,0.024 L 2.8571428,7.274286 V 0.380952 C 2.8571428,0.170286 2.6864761,0 2.4761904,0 2.2659047,0 2.095238,0.170286 2.095238,0.380952 V 15.619048 C 2.095238,15.829714 2.2659047,16 2.4761904,16 2.6864761,16 2.8571428,15.829714 2.8571428,15.619048 V 8.725714 L 13.307428,15.932952 C 13.372571,15.977143 13.448,16 13.523809,16 c 0.06057,0 0.121524,-0.01448 0.177143,-0.04343 0.125334,-0.0659 0.20381,-0.195809 0.20381,-0.337523 V 0.380952 c 0,-0.141714 -0.07848,-0.271619 -0.20381,-0.337523 z"
                      style="stroke-width:0.38095239"/>
                <g id="g4replaced1" transform="translate(-5.5,-26)"/>
                <g id="g6replaced1" transform="translate(-5.5,-26)"/>
                <g id="g8replaced1" transform="translate(-5.5,-26)"/>
                <g id="g10replaced1" transform="translate(-5.5,-26)"/>
                <g id="g12replaced1" transform="translate(-5.5,-26)"/>
                <g id="g14replaced1" transform="translate(-5.5,-26)"/>
                <g id="g16replaced1" transform="translate(-5.5,-26)"/>
                <g id="g18replaced1" transform="translate(-5.5,-26)"/>
                <g id="g20replaced1" transform="translate(-5.5,-26)"/>
                <g id="g22replaced1" transform="translate(-5.5,-26)"/>
                <g id="g24replaced1" transform="translate(-5.5,-26)"/>
                <g id="g26replaced1" transform="translate(-5.5,-26)"/>
                <g id="g28replaced1" transform="translate(-5.5,-26)"/>
                <g id="g30replaced1" transform="translate(-5.5,-26)"/>
                <g id="g32replaced1" transform="translate(-5.5,-26)"/></svg>
            <text x="34" xml:space="preserve" y="56" clip-path="url(#clipPath6)"
                  stroke="none">size(gs)&gt;0</text>
            <svg contentScriptType="text/ecmascript" zoomAndPan="magnify"
                 xmlns:rdf="http://www.w3.org/1999/02/22-rdf-syntax-ns#"
                 xmlns:xlink="http://www.w3.org/1999/xlink"
                 xmlns:svg="http://www.w3.org/2000/svg"
                 contentStyleType="text/css" id="Capa_1replaced2" version="1.1"
                 xml:space="preserve" width="16"
                 xmlns:dc="http://purl.org/dc/elements/1.1/"
                 xmlns:cc="http://creativecommons.org/ns#"
                 preserveAspectRatio="xMidYMid meet" viewBox="0 0 16.000001 16"
                 height="16" xmlns="http://www.w3.org/2000/svg" x="15" y="61">
                <metadata id="metadata39replaced2">
                    <rdf:RDF>
                        <cc:Work rdf:about="">
                            <dc:format>image/svg+xml</dc:format><dc:type rdf:resource="http://purl.org/dc/dcmitype/StillImage"/>
                            <dc:title/></cc:Work></rdf:RDF></metadata>
                <defs id="defs37replaced2"/>
                <path id="path2replaced2"
                      d="M 13.523809,0 C 13.313524,0 13.142857,0.170286 13.142857,0.380952 V 7.274286 L 2.6925713,0.067429 C 2.5759999,-0.012952 2.4243809,-0.021714 2.2990475,0.043429 2.1737142,0.109333 2.095238,0.239238 2.095238,0.380952 v 15.238096 c 0,0.141714 0.078476,0.271619 0.2038095,0.337523 C 2.3546666,15.985524 2.415619,16 2.4761904,16 c 0.07581,0 0.1512381,-0.02286 0.2163809,-0.06743 L 13.142857,8.725714 v 6.893334 c 0,0.210666 0.170667,0.380952 0.380952,0.380952 0.210286,0 0.380953,-0.170286 0.380953,-0.380952 V 0.380952 C 13.904762,0.170286 13.734095,0 13.523809,0 Z"
                      style="stroke-width:0.38095239"/>
                <g id="g4replaced2" transform="translate(-5.5,-26)"/>
                <g id="g6replaced2" transform="translate(-5.5,-26)"/>
                <g id="g8replaced2" transform="translate(-5.5,-26)"/>
                <g id="g10replaced2" transform="translate(-5.5,-26)"/>
                <g id="g12replaced2" transform="translate(-5.5,-26)"/>
                <g id="g14replaced2" transform="translate(-5.5,-26)"/>
                <g id="g16replaced2" transform="translate(-5.5,-26)"/>
                <g id="g18replaced2" transform="translate(-5.5,-26)"/>
                <g id="g20replaced2" transform="translate(-5.5,-26)"/>
                <g id="g22replaced2" transform="translate(-5.5,-26)"/>
                <g id="g24replaced2" transform="translate(-5.5,-26)"/>
                <g id="g26replaced2" transform="translate(-5.5,-26)"/>
                <g id="g28replaced2" transform="translate(-5.5,-26)"/>
                <g id="g30replaced2" transform="translate(-5.5,-26)"/>
                <g id="g32replaced2" transform="translate(-5.5,-26)"/></svg>
            <text x="34" xml:space="preserve" y="75" clip-path="url(#clipPath8)"
                  stroke="none">forall x: nat | 0&lt;=x/\x&lt;size(gs) @ goreq(result, gs[x].i)</text>
            <svg contentScriptType="text/ecmascript" zoomAndPan="magnify"
                 xmlns:rdf="http://www.w3.org/1999/02/22-rdf-syntax-ns#"
                 xmlns:xlink="http://www.w3.org/1999/xlink"
                 xmlns:svg="http://www.w3.org/2000/svg"
                 contentStyleType="text/css" id="Capa_1replaced3" version="1.1"
                 xml:space="preserve" width="16"
                 xmlns:dc="http://purl.org/dc/elements/1.1/"
                 xmlns:cc="http://creativecommons.org/ns#"
                 preserveAspectRatio="xMidYMid meet" viewBox="0 0 16.000001 16"
                 height="16" xmlns="http://www.w3.org/2000/svg" x="15" y="80">
                <metadata id="metadata39replaced3">
                    <rdf:RDF>
                        <cc:Work rdf:about="">
                            <dc:format>image/svg+xml</dc:format><dc:type rdf:resource="http://purl.org/dc/dcmitype/StillImage"/>
                            <dc:title/></cc:Work></rdf:RDF></metadata>
                <defs id="defs37replaced3"/>
                <path id="path2replaced3"
                      d="M 13.523809,0 C 13.313524,0 13.142857,0.170286 13.142857,0.380952 V 7.274286 L 2.6925713,0.067429 C 2.5759999,-0.012952 2.4243809,-0.021714 2.2990475,0.043429 2.1737142,0.109333 2.095238,0.239238 2.095238,0.380952 v 15.238096 c 0,0.141714 0.078476,0.271619 0.2038095,0.337523 C 2.3546666,15.985524 2.415619,16 2.4761904,16 c 0.07581,0 0.1512381,-0.02286 0.2163809,-0.06743 L 13.142857,8.725714 v 6.893334 c 0,0.210666 0.170667,0.380952 0.380952,0.380952 0.210286,0 0.380953,-0.170286 0.380953,-0.380952 V 0.380952 C 13.904762,0.170286 13.734095,0 13.523809,0 Z"
                      style="stroke-width:0.38095239"/>
                <g id="g4replaced3" transform="translate(-5.5,-26)"/>
                <g id="g6replaced3" transform="translate(-5.5,-26)"/>
                <g id="g8replaced3" transform="translate(-5.5,-26)"/>
                <g id="g10replaced3" transform="translate(-5.5,-26)"/>
                <g id="g12replaced3" transform="translate(-5.5,-26)"/>
                <g id="g14replaced3" transform="translate(-5.5,-26)"/>
                <g id="g16replaced3" transform="translate(-5.5,-26)"/>
                <g id="g18replaced3" transform="translate(-5.5,-26)"/>
                <g id="g20replaced3" transform="translate(-5.5,-26)"/>
                <g id="g22replaced3" transform="translate(-5.5,-26)"/>
                <g id="g24replaced3" transform="translate(-5.5,-26)"/>
                <g id="g26replaced3" transform="translate(-5.5,-26)"/>
                <g id="g28replaced3" transform="translate(-5.5,-26)"/>
                <g id="g30replaced3" transform="translate(-5.5,-26)"/>
                <g id="g32replaced3" transform="translate(-5.5,-26)"/></svg>
            <text x="34" xml:space="preserve" y="94"
                  clip-path="url(#clipPath10)" stroke="none">exists y: nat | 0&lt;=y/\y&lt;size(gs) @ result==gs[y].i</text>
            <line clip-path="url(#clipPath11)" fill="none" x1="11" x2="435"
                  y1="39" y2="39"/>
        </g>
    </g>
</svg>