
<svg stroke-dasharray="none" shape-rendering="auto"
     xmlns="http://www.w3.org/2000/svg" font-family="Helvetica"
     text-rendering="auto" width="518" fill-opacity="1"
     contentScriptType="text/ecmascript" color-interpolation="auto"
     color-rendering="auto" preserveAspectRatio="xMidYMid meet" font-size="12"
     viewBox="0 0 518 383" fill="black"
     xmlns:xlink="http://www.w3.org/1999/xlink" stroke="black"
     image-rendering="auto" stroke-miterlimit="10" zoomAndPan="magnify"
     version="1.0" stroke-linecap="square" stroke-linejoin="miter"
     contentStyleType="text/css" font-style="normal" stroke-width="1"
     height="383" stroke-dashoffset="0" font-weight="normal" stroke-opacity="1">
    <!--Generated by the Batik Graphics2D SVG Generator-->
    <defs id="genericDefs"/>
    <g>
        <defs id="defs1">
            <linearGradient x1="11" xmlns:xlink="http://www.w3.org/1999/xlink"
                            gradientUnits="userSpaceOnUse" y1="65" x2="209"
                            y2="65" xlink:type="simple" xlink:actuate="onLoad"
                            id="linearGradient1" xlink:show="other"
                            spreadMethod="pad">
                <stop stop-opacity="1" stop-color="white" offset="0%"/>
                <stop stop-opacity="1" stop-color="white" offset="100%"/>
            </linearGradient>
            <linearGradient x1="240" xmlns:xlink="http://www.w3.org/1999/xlink"
                            gradientUnits="userSpaceOnUse" y1="10" x2="338"
                            y2="10" xlink:type="simple" xlink:actuate="onLoad"
                            id="linearGradient2" xlink:show="other"
                            spreadMethod="pad">
                <stop stop-opacity="1" stop-color="white" offset="0%"/>
                <stop stop-opacity="1" stop-color="white" offset="100%"/>
            </linearGradient>
            <linearGradient x1="11" xmlns:xlink="http://www.w3.org/1999/xlink"
                            gradientUnits="userSpaceOnUse" y1="145" x2="506"
                            y2="145" xlink:type="simple" xlink:actuate="onLoad"
                            id="linearGradient3" xlink:show="other"
                            spreadMethod="pad">
                <stop stop-opacity="1" stop-color="white" offset="0%"/>
                <stop stop-opacity="1" stop-color="white" offset="100%"/>
            </linearGradient>
            <linearGradient x1="12" xmlns:xlink="http://www.w3.org/1999/xlink"
                            gradientUnits="userSpaceOnUse" y1="172" x2="505"
                            y2="172" xlink:type="simple" xlink:actuate="onLoad"
                            id="linearGradient4" xlink:show="other"
                            spreadMethod="pad">
                <stop stop-opacity="1" stop-color="white" offset="0%"/>
                <stop stop-opacity="1" stop-color="white" offset="100%"/>
            </linearGradient>
            <linearGradient x1="12" xmlns:xlink="http://www.w3.org/1999/xlink"
                            gradientUnits="userSpaceOnUse" y1="212" x2="505"
                            y2="212" xlink:type="simple" xlink:actuate="onLoad"
                            id="linearGradient5" xlink:show="other"
                            spreadMethod="pad">
                <stop stop-opacity="1" stop-color="white" offset="0%"/>
                <stop stop-opacity="1" stop-color="white" offset="100%"/>
            </linearGradient>
            <linearGradient x1="120" xmlns:xlink="http://www.w3.org/1999/xlink"
                            gradientUnits="userSpaceOnUse" y1="233" x2="191"
                            y2="233" xlink:type="simple" xlink:actuate="onLoad"
                            id="linearGradient6" xlink:show="other"
                            spreadMethod="pad">
                <stop stop-opacity="1" stop-color="white" offset="0%"/>
                <stop stop-opacity="1" stop-color="white" offset="100%"/>
            </linearGradient>
            <linearGradient x1="121" xmlns:xlink="http://www.w3.org/1999/xlink"
                            gradientUnits="userSpaceOnUse" y1="260" x2="190"
                            y2="260" xlink:type="simple" xlink:actuate="onLoad"
                            id="linearGradient7" xlink:show="other"
                            spreadMethod="pad">
                <stop stop-opacity="1" stop-color="white" offset="0%"/>
                <stop stop-opacity="1" stop-color="white" offset="100%"/>
            </linearGradient>
            <linearGradient x1="121" xmlns:xlink="http://www.w3.org/1999/xlink"
                            gradientUnits="userSpaceOnUse" y1="300" x2="190"
                            y2="300" xlink:type="simple" xlink:actuate="onLoad"
                            id="linearGradient8" xlink:show="other"
                            spreadMethod="pad">
                <stop stop-opacity="1" stop-color="white" offset="0%"/>
                <stop stop-opacity="1" stop-color="white" offset="100%"/>
            </linearGradient>
            <clipPath clipPathUnits="userSpaceOnUse" id="clipPath1">
                <path d="M9 9 L211 9 L211 51 L9 51 L9 9 Z"/>
            </clipPath>
            <clipPath clipPathUnits="userSpaceOnUse" id="clipPath2">
                <path d="M10 10 L213 10 L213 50 L10 50 L10 10 Z"/>
            </clipPath>
            <clipPath clipPathUnits="userSpaceOnUse" id="clipPath3">
                <path d="M10 10 L210 10 L210 50 L10 50 L10 10 Z"/>
            </clipPath>
            <clipPath clipPathUnits="userSpaceOnUse" id="clipPath4">
                <path d="M10 64 L212 64 L212 129 L10 129 L10 64 Z"/>
            </clipPath>
            <clipPath clipPathUnits="userSpaceOnUse" id="clipPath5">
                <path d="M10 64 L210 64 L210 127 L10 127 L10 64 Z"/>
            </clipPath>
            <clipPath clipPathUnits="userSpaceOnUse" id="clipPath6">
                <path d="M84 69 L138 69 L138 87 L84 87 L84 69 Z"/>
            </clipPath>
            <clipPath clipPathUnits="userSpaceOnUse" id="clipPath7">
                <path d="M15 92 L86 92 L86 110 L15 110 L15 92 Z"/>
            </clipPath>
            <clipPath clipPathUnits="userSpaceOnUse" id="clipPath8">
                <path d="M11 90 L209 90 L209 126 L11 126 L11 90 Z"/>
            </clipPath>
            <clipPath clipPathUnits="userSpaceOnUse" id="clipPath9">
                <path d="M239 9 L341 9 L341 90 L239 90 L239 9 Z"/>
            </clipPath>
            <clipPath clipPathUnits="userSpaceOnUse" id="clipPath10">
                <path d="M239 9 L339 9 L339 88 L239 88 L239 9 Z"/>
            </clipPath>
            <clipPath clipPathUnits="userSpaceOnUse" id="clipPath11">
                <path d="M268 14 L310 14 L310 32 L268 32 L268 14 Z"/>
            </clipPath>
            <clipPath clipPathUnits="userSpaceOnUse" id="clipPath12">
                <path d="M268 14 L313 14 L313 32 L268 32 L268 14 Z"/>
            </clipPath>
            <clipPath clipPathUnits="userSpaceOnUse" id="clipPath13">
                <path d="M244 37 L272 37 L272 55 L244 55 L244 37 Z"/>
            </clipPath>
            <clipPath clipPathUnits="userSpaceOnUse" id="clipPath14">
                <path d="M244 53 L280 53 L280 71 L244 71 L244 53 Z"/>
            </clipPath>
            <clipPath clipPathUnits="userSpaceOnUse" id="clipPath15">
                <path d="M244 69 L282 69 L282 87 L244 87 L244 69 Z"/>
            </clipPath>
            <clipPath clipPathUnits="userSpaceOnUse" id="clipPath16">
                <path d="M240 35 L338 35 L338 87 L240 87 L240 35 Z"/>
            </clipPath>
            <clipPath clipPathUnits="userSpaceOnUse" id="clipPath17">
                <path d="M10 144 L509 144 L509 374 L10 374 L10 144 Z"/>
            </clipPath>
            <clipPath clipPathUnits="userSpaceOnUse" id="clipPath18">
                <path d="M10 144 L507 144 L507 372 L10 372 L10 144 Z"/>
            </clipPath>
            <clipPath clipPathUnits="userSpaceOnUse" id="clipPath19">
                <path d="M179 149 L338 149 L338 167 L179 167 L179 149 Z"/>
            </clipPath>
            <clipPath clipPathUnits="userSpaceOnUse" id="clipPath20">
                <path d="M179 149 L341 149 L341 167 L179 167 L179 149 Z"/>
            </clipPath>
            <clipPath clipPathUnits="userSpaceOnUse" id="clipPath21">
                <path d="M11 171 L506 171 L506 213 L11 213 L11 171 Z"/>
            </clipPath>
            <clipPath clipPathUnits="userSpaceOnUse" id="clipPath22">
                <path d="M15 172 L103 172 L103 190 L15 190 L15 172 Z"/>
            </clipPath>
            <clipPath clipPathUnits="userSpaceOnUse" id="clipPath23">
                <path d="M15 172 L106 172 L106 190 L15 190 L15 172 Z"/>
            </clipPath>
            <clipPath clipPathUnits="userSpaceOnUse" id="clipPath24">
                <path d="M15 188 L76 188 L76 206 L15 206 L15 188 Z"/>
            </clipPath>
            <clipPath clipPathUnits="userSpaceOnUse" id="clipPath25">
                <path d="M15 188 L78 188 L78 206 L15 206 L15 188 Z"/>
            </clipPath>
            <clipPath clipPathUnits="userSpaceOnUse" id="clipPath26">
                <path d="M11 211 L506 211 L506 371 L11 371 L11 211 Z"/>
            </clipPath>
            <clipPath clipPathUnits="userSpaceOnUse" id="clipPath27">
                <path d="M119 232 L194 232 L194 344 L119 344 L119 232 Z"/>
            </clipPath>
            <clipPath clipPathUnits="userSpaceOnUse" id="clipPath28">
                <path d="M119 232 L192 232 L192 342 L119 342 L119 232 Z"/>
            </clipPath>
            <clipPath clipPathUnits="userSpaceOnUse" id="clipPath29">
                <path d="M139 237 L175 237 L175 255 L139 255 L139 237 Z"/>
            </clipPath>
            <clipPath clipPathUnits="userSpaceOnUse" id="clipPath30">
                <path d="M120 259 L191 259 L191 301 L120 301 L120 259 Z"/>
            </clipPath>
            <clipPath clipPathUnits="userSpaceOnUse" id="clipPath31">
                <path d="M120 299 L191 299 L191 341 L120 341 L120 299 Z"/>
            </clipPath>
            <clipPath clipPathUnits="userSpaceOnUse" id="clipPath32">
                <path d="M120 258 L191 258 L191 341 L120 341 L120 258 Z"/>
            </clipPath>
            <clipPath clipPathUnits="userSpaceOnUse" id="clipPath33">
                <path d="M44 264 L70 264 L70 290 L44 290 L44 264 Z"/>
            </clipPath>
            <clipPath clipPathUnits="userSpaceOnUse" id="clipPath34">
                <path d="M444 274 L470 274 L470 300 L444 300 L444 274 Z"/>
            </clipPath>
            <clipPath clipPathUnits="userSpaceOnUse" id="clipPath35">
                <path d="M11 170 L506 170 L506 371 L11 371 L11 170 Z"/>
            </clipPath>
            <clipPath clipPathUnits="userSpaceOnUse" id="clipPath36">
                <path d="M-1 -1 L519 -1 L519 384 L-1 384 L-1 -1 Z"/>
            </clipPath>
            <clipPath clipPathUnits="userSpaceOnUse" id="clipPath37">
                <path d="M111 268 L123 268 L123 279 L111 279 L111 268 Z"/>
            </clipPath>
            <clipPath clipPathUnits="userSpaceOnUse" id="clipPath38">
                <path d="M204 259 L421 259 L421 277 L204 277 L204 259 Z"/>
            </clipPath>
            <clipPath clipPathUnits="userSpaceOnUse" id="clipPath39">
                <path d="M436 282 L448 282 L448 293 L436 293 L436 282 Z"/>
            </clipPath>
            <clipPath clipPathUnits="userSpaceOnUse" id="clipPath40">
                <path d="M204 309 L428 309 L428 327 L204 327 L204 309 Z"/>
            </clipPath>
            <clipPath clipPathUnits="userSpaceOnUse" id="clipPath41">
                <path d="M452 296 L463 296 L463 308 L452 308 L452 296 Z"/>
            </clipPath>
            <clipPath clipPathUnits="userSpaceOnUse" id="clipPath42">
                <path d="M204 224 L421 224 L421 242 L204 242 L204 224 Z"/>
            </clipPath>
            <clipPath clipPathUnits="userSpaceOnUse" id="clipPath43">
                <path d="M452 266 L463 266 L463 278 L452 278 L452 266 Z"/>
            </clipPath>
        </defs>
        <g fill="white" font-family="&apos;Ubuntu&apos;" stroke-linejoin="round"
           stroke="white" stroke-width="0" stroke-miterlimit="0">
            <rect x="10" y="10" clip-path="url(#clipPath1)" width="200"
                  height="40" stroke="none"/>
        </g>
        <g stroke-width="1.1" font-family="&apos;Ubuntu&apos;"
           stroke-linecap="butt">
            <rect x="10" y="10" clip-path="url(#clipPath1)" fill="none"
                  width="199" height="39"/>
            <text x="54" font-size="13" y="35" clip-path="url(#clipPath2)"
                  stroke="none" font-weight="bold" xml:space="preserve">package Location</text>
            <line clip-path="url(#clipPath3)" fill="none" x1="54" x2="166"
                  y1="37" y2="37"/>
        </g>
        <g font-size="13" stroke-linecap="butt" fill="rgb(131,122,133)"
           font-family="&apos;Ubuntu&apos;" stroke="rgb(131,122,133)"
           font-weight="bold" stroke-width="1.1">
            <rect x="12" y="66" clip-path="url(#clipPath4)" width="198" rx="0"
                  height="61" ry="0" opacity="0.2549" stroke="none"/>
            <rect x="13" y="67" clip-path="url(#clipPath4)" width="198" rx="0"
                  height="61" ry="0" opacity="0.2549" stroke="none"/>
            <rect x="11" y="65" clip-path="url(#clipPath5)"
                  fill="url(#linearGradient1)" width="198" rx="0" height="61"
                  ry="0" stroke="none"/>
            <rect x="11" y="65" clip-path="url(#clipPath5)" fill="none"
                  width="197" rx="0" height="60" ry="0" stroke="black"/>
            <text x="85" y="83" clip-path="url(#clipPath6)" fill="black"
                  stroke="none" xml:space="preserve">imports</text>
            <text x="16" y="106" clip-path="url(#clipPath7)" fill="black"
                  stroke="none" font-weight="normal" xml:space="preserve">Chemical::*</text>
            <line clip-path="url(#clipPath8)" fill="none" x1="12" x2="208"
                  y1="91" y2="91" stroke="black"/>
            <rect x="241" y="11" clip-path="url(#clipPath9)" width="98" rx="0"
                  height="77" ry="0" opacity="0.2549" stroke="none"/>
            <rect x="242" y="12" clip-path="url(#clipPath9)" width="98" rx="0"
                  height="77" ry="0" opacity="0.2549" stroke="none"/>
            <rect x="240" y="10" clip-path="url(#clipPath10)"
                  fill="url(#linearGradient2)" width="98" rx="0" height="77"
                  ry="0" stroke="none"/>
            <rect x="240" y="10" clip-path="url(#clipPath10)" fill="none"
                  width="97" rx="0" height="76" ry="0" stroke="black"/>
            <svg contentScriptType="text/ecmascript" zoomAndPan="magnify"
                 xmlns:rdf="http://www.w3.org/1999/02/22-rdf-syntax-ns#"
                 xmlns:xlink="http://www.w3.org/1999/xlink"
                 xmlns:svg="http://www.w3.org/2000/svg"
                 contentStyleType="text/css" id="Capa_1replaced0"
                 sodipodi:docname="_base64_enumeration.svg" version="1.1"
                 width="16" xml:space="preserve"
                 xmlns:sodipodi="http://sodipodi.sourceforge.net/DTD/sodipodi-0.dtd"
                 xmlns:dc="http://purl.org/dc/elements/1.1/"
                 xmlns:inkscape="http://www.inkscape.org/namespaces/inkscape"
                 xmlns:cc="http://creativecommons.org/ns#"
                 preserveAspectRatio="xMidYMid meet"
                 inkscape:version="0.92.2 5c3e80d, 2017-08-06"
                 viewBox="0 0 15.999999 15.999999" height="16"
                 xmlns="http://www.w3.org/2000/svg" x="269" y="15">
                <sodipodi:namedview objecttolerance="10" bordercolor="#666666"
                                    inkscape:window-height="480"
                                    inkscape:zoom="14.75" gridtolerance="10"
                                    id="namedview63replaced0"
                                    inkscape:current-layer="Capa_1"
                                    inkscape:window-y="0" inkscape:cy="8"
                                    inkscape:window-x="0" inkscape:cx="8"
                                    showgrid="false" guidetolerance="10"
                                    inkscape:pageopacity="0"
                                    inkscape:pageshadow="2"
                                    inkscape:window-width="640"
                                    inkscape:window-maximized="0"
                                    pagecolor="#ffffff" borderopacity="1"/>
                <metadata id="metadata854replaced0">
                    <rdf:RDF>
                        <cc:Work rdf:about="">
                            <dc:format>image/svg+xml</dc:format><dc:type rdf:resource="http://purl.org/dc/dcmitype/StillImage"/>
                            <dc:title/></cc:Work></rdf:RDF></metadata>
                <defs id="defs852replaced0"/>
                <g id="g817replaced0" style="fill:#000000"
                   transform="matrix(0.03925417,0,0,0.03925417,-1.9473085e-5,1.54e-7)">
                    <path id="path815replaced0"
                          d="M 325.882,57.79 H 81.717 c -11.748,0 -21.306,9.552 -21.306,21.293 v 249.425 c 0,11.738 9.552,21.291 21.306,21.291 h 244.165 c 11.744,0 21.302,-9.553 21.302,-21.291 V 79.089 C 347.178,67.348 337.626,57.79 325.882,57.79 Z M 203.422,252.219 H 96.532 V 87.308 h 106.042 v 30.44 h -65.089 v 36.739 h 56.061 v 30.547 h -56.061 v 36.738 h 65.943 v 30.446 h -0.006 z M 365.832,0 H 41.763 C 20.626,0 3.485,17.142 3.485,38.281 v 331.035 c 0,21.144 17.141,38.284 38.278,38.284 h 324.075 c 21.138,0 38.278,-17.141 38.278,-38.284 V 38.275 C 404.116,17.142 386.976,0 365.832,0 Z m -3.558,328.509 c 0,20.055 -16.326,36.387 -36.393,36.387 H 81.717 c -20.064,0 -36.396,-16.326 -36.396,-36.387 V 79.089 c 0,-20.058 16.325,-36.39 36.396,-36.39 h 244.165 c 20.061,0 36.393,16.326 36.393,36.39 v 249.42 z"
                          style="fill:#000000"/></g>
                <g id="g819replaced0" transform="translate(-3.485,-391.6)"/>
                <g id="g821replaced0" transform="translate(-3.485,-391.6)"/>
                <g id="g823replaced0" transform="translate(-3.485,-391.6)"/>
                <g id="g825replaced0" transform="translate(-3.485,-391.6)"/>
                <g id="g827replaced0" transform="translate(-3.485,-391.6)"/>
                <g id="g829replaced0" transform="translate(-3.485,-391.6)"/>
                <g id="g831replaced0" transform="translate(-3.485,-391.6)"/>
                <g id="g833replaced0" transform="translate(-3.485,-391.6)"/>
                <g id="g835replaced0" transform="translate(-3.485,-391.6)"/>
                <g id="g837replaced0" transform="translate(-3.485,-391.6)"/>
                <g id="g839replaced0" transform="translate(-3.485,-391.6)"/>
                <g id="g841replaced0" transform="translate(-3.485,-391.6)"/>
                <g id="g843replaced0" transform="translate(-3.485,-391.6)"/>
                <g id="g845replaced0" transform="translate(-3.485,-391.6)"/>
                <g id="g847replaced0" transform="translate(-3.485,-391.6)"/></svg>
            <text x="288" y="28" clip-path="url(#clipPath12)" fill="black"
                  stroke="none" font-weight="normal" xml:space="preserve">Loc</text>
            <text x="245" y="51" clip-path="url(#clipPath13)" fill="black"
                  stroke="none" font-weight="normal" xml:space="preserve"> left</text>
            <text x="245" y="67" clip-path="url(#clipPath14)" fill="black"
                  stroke="none" font-weight="normal" xml:space="preserve"> right</text>
            <text x="245" y="83" clip-path="url(#clipPath15)" fill="black"
                  stroke="none" font-weight="normal" xml:space="preserve"> front</text>
            <line clip-path="url(#clipPath16)" fill="none" x1="241" x2="337"
                  y1="36" y2="36" stroke="black"/>
            <rect x="12" y="146" clip-path="url(#clipPath17)" width="495" rx="0"
                  height="226" ry="0" opacity="0.2549" stroke="none"/>
            <rect x="13" y="147" clip-path="url(#clipPath17)" width="495" rx="0"
                  height="226" ry="0" opacity="0.2549" stroke="none"/>
            <rect x="11" y="145" clip-path="url(#clipPath18)"
                  fill="url(#linearGradient3)" width="495" rx="0" height="226"
                  ry="0" stroke="none"/>
            <rect x="11" y="145" clip-path="url(#clipPath18)" fill="none"
                  width="494" rx="0" height="225" ry="0" stroke="black"/>
            <svg contentScriptType="text/ecmascript" zoomAndPan="magnify"
                 xmlns:rdf="http://www.w3.org/1999/02/22-rdf-syntax-ns#"
                 xmlns:xlink="http://www.w3.org/1999/xlink"
                 xmlns:svg="http://www.w3.org/2000/svg"
                 contentStyleType="text/css" id="svg2replaced1" version="1.1"
                 xml:space="preserve" width="16"
                 xmlns:dc="http://purl.org/dc/elements/1.1/"
                 xmlns:cc="http://creativecommons.org/ns#"
                 preserveAspectRatio="xMidYMid meet" viewBox="0 0 16 16.000025"
                 height="16" xmlns="http://www.w3.org/2000/svg" x="180" y="150">
                <metadata id="metadata8replaced1">
                    <rdf:RDF>
                        <cc:Work rdf:about="">
                            <dc:format>image/svg+xml</dc:format><dc:type rdf:resource="http://purl.org/dc/dcmitype/StillImage"/>
                            <dc:title/></cc:Work></rdf:RDF></metadata>
                <defs id="defs6replaced1">
                    <clipPath clipPathUnits="userSpaceOnUse"
                              id="clipPath18replaced1">
                        <path d="m 0,6 3870,0 0,4100 L 0,4106 0,6 Z"
                              id="path20replaced1"/></clipPath></defs>
                <g id="g10replaced1"
                   transform="matrix(1.25,0,0,-1.25,0,17.247584)">
                    <g id="g12replaced1"
                       transform="matrix(0.00312499,0,0,0.00312499,0.36626931,0.96685818)">
                        <g id="g14replaced1">
                            <g id="g16replaced1"
                               clip-path="url(#clipPath18replaced1)">
                                <path id="path22replaced1"
                                      d="M 1923.01,4106 C 804.102,4106 0,3294.4 0,2077.09 0,993.809 781.988,9.98047 1923.12,9.98047 3075.43,9.98047 3861.6,993.539 3861.6,2077.09 3861.6,3304.13 3031.84,4106 1923.01,4106 Z M 2636.25,2111.82 C 2635.98,1434.44 2599.84,469.91 1923.12,469.91 l 0,-0.16 c -667.1,0 -693.71,965.08 -693.71,1641.25 0,793.52 74.22,1554.26 693.71,1554.26 619.5,0 713.13,-770.31 713.13,-1553.44 z"
                                      style="fill:#000000;fill-opacity:1;fill-rule:nonzero;stroke:none"/></g></g></g></g></svg>
            <text x="199" y="163" clip-path="url(#clipPath20)" fill="black"
                  stroke="none" font-weight="normal" xml:space="preserve">changeDirection(l: Loc)</text>
        </g>
        <g font-size="1" stroke-linecap="butt" fill="url(#linearGradient4)"
           font-family="&apos;Ubuntu&apos;" stroke="url(#linearGradient4)"
           stroke-width="1.1">

            <svg contentScriptType="text/ecmascript" zoomAndPan="magnify"
                 xmlns:rdf="http://www.w3.org/1999/02/22-rdf-syntax-ns#"
                 xmlns:xlink="http://www.w3.org/1999/xlink"
                 xmlns:svg="http://www.w3.org/2000/svg"
                 contentStyleType="text/css" id="svg2replaced2" version="1.1"
                 xml:space="preserve" width="16"
                 xmlns:dc="http://purl.org/dc/elements/1.1/"
                 xmlns:cc="http://creativecommons.org/ns#"
                 preserveAspectRatio="xMidYMid meet" viewBox="0 0 15.999996 16"
                 height="16" xmlns="http://www.w3.org/2000/svg" x="16" y="173">
                <metadata id="metadata13replaced2">
                    <rdf:RDF>
                        <cc:Work rdf:about="">
                            <dc:format>image/svg+xml</dc:format><dc:type rdf:resource="http://purl.org/dc/dcmitype/StillImage"/>
                            <dc:title/></cc:Work></rdf:RDF></metadata>
                <defs id="defs6replaced2">
                    <clipPath clipPathUnits="userSpaceOnUse"
                              id="clipPath18replaced2">
                        <path id="path20replaced2"
                              d="m0 2.5508h1770v1770h-1770v-1770z"/></clipPath></defs>
                <g id="g10replaced2" style="fill:#000000"
                   transform="matrix(1.25 0 0 -1.25 0 17.251)">
                    <g id="g12replaced2" style="fill:#000000"
                       transform="matrix(.0072621 0 0 .0072621 0 .92846)">
                        <g style="fill:#000000" id="g14replaced2">
                            <g id="g16replaced2" style="fill:#000000"
                               clip-path="url(#clipPath18replaced2)">
                                <path d="m881.29 1772.6c-485.94 0-881.29-395.4-881.29-881.34 0-485.93 395.35-881.25 881.29-881.25s881.29 395.32 881.29 881.25c0 485.94-395.35 881.29-881.29 881.29zm0-1520c-352.19 0-638.71 286.53-638.71 638.71 0 352.23 286.52 638.75 638.71 638.75s638.71-286.52 638.71-638.75c0-352.18-286.52-638.71-638.71-638.71zm320.23 753.36c0 177.89-124.84 288.4-325.86 288.4h-297.73v-806.09h170.7v224.61h127.07c7.461 0 15.391 0.192 23.52 0.582l164.3-225.19h211.56l-200.28 274.41c81.76 51.051 126.72 137.27 126.72 243.28zm-325.86-122.38h-127.03v240.08h127.07c155.12 0 155.12-88.6 155.12-117.7 0-30.269 0-122.38-155.16-122.38z"
                                      id="path22replaced2" style="fill:#000000"/></g></g></g></g></svg>
            <text x="35" font-size="13" y="186" clip-path="url(#clipPath23)"
                  fill="black" stroke="none" xml:space="preserve">Operations</text>
            <svg contentScriptType="text/ecmascript" zoomAndPan="magnify"
                 xmlns:rdf="http://www.w3.org/1999/02/22-rdf-syntax-ns#"
                 xmlns:xlink="http://www.w3.org/1999/xlink"
                 xmlns:svg="http://www.w3.org/2000/svg"
                 contentStyleType="text/css" id="svg2replaced3" version="1.1"
                 xml:space="preserve" width="16"
                 xmlns:dc="http://purl.org/dc/elements/1.1/"
                 xmlns:cc="http://creativecommons.org/ns#"
                 preserveAspectRatio="xMidYMid meet" viewBox="0 0 16 16"
                 height="16" xmlns="http://www.w3.org/2000/svg" x="16" y="189">
                <metadata id="metadata8replaced3">
                    <rdf:RDF>
                        <cc:Work rdf:about="">
                            <dc:format>image/svg+xml</dc:format><dc:type rdf:resource="http://purl.org/dc/dcmitype/StillImage"/>
                            <dc:title/></cc:Work></rdf:RDF></metadata>
                <defs id="defs6replaced3">
                    <clipPath clipPathUnits="userSpaceOnUse"
                              id="clipPath18replaced3">
                        <path d="m 0,8.26953 750,0 0,710 -750,0 0,-710 z"
                              id="path20replaced3"/></clipPath></defs>
                <g id="g10replaced3"
                   transform="matrix(1.25,0,0,-1.25,-5.3948395e-4,17.250368)">
                    <g id="g12replaced3" transform="scale(0.1,0.1)">
                        <g id="g14replaced3">
                            <g id="g16replaced3"
                               clip-path="url(#clipPath18replaced3)">
                                <path id="path22replaced3"
                                      d="m 99.552504,36.384436 c -18.283133,14.29508 -5.378227,73.108594 -5.378227,73.108594 l 22.353443,0 c 2.33075,0 11.4766,1.46901 11.4766,12.41854 0,13.46737 -11.17732,12.64496 -11.17732,12.64496 l -82.28727,0 c -13.506704,0 -25.6981897,-15.47132 -32.6997521,-26.5279 -3.7208936,-5.91196 -1.61595456,-7.56191 4.7837129,-4.78293 22.4249432,9.82118 28.7458012,6.28598 28.7458012,6.28598 1.57658,-7.56191 2.103646,-41.691398 -3.648076,-55.15877 -5.831244,-12.678995 -16.593101,-28.74368 -0.795045,-38.190882 12.34586,-6.9995616 25.284797,7.376323 24.00886,31.832744 -0.600602,12.945607 -1.623267,61.478258 -1.623267,61.478258 l 20.621239,0 C 73.291899,101.93026 69.792777,63.325848 73.44547,40.452693 77.247288,2.2617254 118.7456,9.6701135 126.49392,31.306681 c 1.92391,5.978829 1.46901,10.57552 0.0395,14.035309 -2.63208,6.433727 -7.03364,6.773703 -6.54591,3.760262 0.30047,-1.917241 0.11424,-3.799766 -0.18641,-5.491097 -0.90329,-5.229273 -11.59168,-13.433339 -20.248596,-7.226719 z"
                                      style="fill:#000000;fill-opacity:1;fill-rule:nonzero;stroke:none"/></g></g></g></g></svg>
            <text x="35" font-size="13" y="202" clip-path="url(#clipPath25)"
                  fill="black" stroke="none" xml:space="preserve">lv: real</text>

            <line clip-path="url(#clipPath26)" fill="none" x1="12" x2="505"
                  y1="212" y2="212" stroke="black"/>
            <rect x="121" y="234" clip-path="url(#clipPath27)"
                  fill="rgb(131,122,133)" width="71" rx="0" height="108" ry="0"
                  opacity="0.2549" stroke="none"/>
            <rect x="122" y="235" clip-path="url(#clipPath27)"
                  fill="rgb(131,122,133)" width="71" rx="0" height="108" ry="0"
                  opacity="0.2549" stroke="none"/>
            <rect x="120" y="233" clip-path="url(#clipPath28)"
                  fill="url(#linearGradient6)" width="71" rx="0" height="108"
                  ry="0" stroke="none"/>
            <rect x="120" y="233" clip-path="url(#clipPath28)" fill="none"
                  width="70" rx="0" height="107" ry="0" stroke="black"/>
            <text x="140" font-size="13" y="251" clip-path="url(#clipPath29)"
                  fill="black" stroke="none" xml:space="preserve">From</text>


            <line clip-path="url(#clipPath31)" fill="none" x1="121" x2="190"
                  y1="300" y2="300" stroke="black"/>
            <line clip-path="url(#clipPath32)" fill="none" x1="121" x2="190"
                  y1="259" y2="259" stroke="black"/>
            <svg contentScriptType="text/ecmascript" zoomAndPan="magnify"
                 xmlns:rdf="http://www.w3.org/1999/02/22-rdf-syntax-ns#"
                 xmlns:xlink="http://www.w3.org/1999/xlink"
                 xmlns:svg="http://www.w3.org/2000/svg"
                 contentStyleType="text/css" id="svg2replaced4" version="1.1"
                 xml:space="preserve" width="24"
                 xmlns:dc="http://purl.org/dc/elements/1.1/"
                 xmlns:cc="http://creativecommons.org/ns#"
                 preserveAspectRatio="xMidYMid meet" viewBox="0 0 16 16"
                 height="24" xmlns="http://www.w3.org/2000/svg" x="45" y="265">
                <metadata id="metadata8replaced4">
                    <rdf:RDF>
                        <cc:Work rdf:about="">
                            <dc:format>image/svg+xml</dc:format><dc:type rdf:resource="http://purl.org/dc/dcmitype/StillImage"/>
                            <dc:title/></cc:Work></rdf:RDF></metadata>
                <defs id="defs6replaced4"/>
                <g id="g10replaced4" transform="matrix(1.25,0,0,-1.25,0,16)">
                    <g id="g12replaced4" style="fill:#000000"
                       transform="scale(0.1,0.1)">
                        <path id="path14replaced4"
                              d="M 64,128 C 28.8156,128 0,99.184 0,64 0,28.8156 28.8156,0 64,0 c 35.184,0 64,28.8156 64,64 0,35.184 -28.816,64 -64,64 z m 6.40936,-96 -12.81872,0 0,38.40936 12.81872,0 0,-38.40936 z m 0,51.184 -12.81872,0 0,12.816 12.81872,0 0,-12.816 z"
                              style="fill:#000000;fill-opacity:1;fill-rule:nonzero;stroke:none"/></g></g></svg>
            <svg contentScriptType="text/ecmascript" zoomAndPan="magnify"
                 xmlns:rdf="http://www.w3.org/1999/02/22-rdf-syntax-ns#"
                 xmlns:xlink="http://www.w3.org/1999/xlink"
                 xmlns:svg="http://www.w3.org/2000/svg"
                 contentStyleType="text/css" id="svg2replaced5" version="1.1"
                 xml:space="preserve" width="24"
                 xmlns:dc="http://purl.org/dc/elements/1.1/"
                 xmlns:cc="http://creativecommons.org/ns#"
                 preserveAspectRatio="xMidYMid meet"
                 viewBox="0 0 16.000002 16.001789" height="24"
                 xmlns="http://www.w3.org/2000/svg" x="445" y="275">
                <metadata id="metadata8replaced5">
                    <rdf:RDF>
                        <cc:Work rdf:about="">
                            <dc:format>image/svg+xml</dc:format><dc:type rdf:resource="http://purl.org/dc/dcmitype/StillImage"/>
                            <dc:title/></cc:Work></rdf:RDF></metadata>
                <defs id="defs6replaced5">
                    <clipPath clipPathUnits="userSpaceOnUse"
                              id="clipPath18replaced5">
                        <path d="m 0,9.01172 460,0 0,460 -460,0 0,-460 z"
                              id="path20replaced5"/></clipPath></defs>
                <g id="g10replaced5"
                   transform="matrix(1.25,0,0,-1.25,0,17.249349)">
                    <g id="g12replaced5"
                       transform="matrix(0.02788793,0,0,0.02788793,0,0.7197124)">
                        <g id="g14replaced5">
                            <g id="g16replaced5"
                               clip-path="url(#clipPath18replaced5)">
                                <path id="path22replaced5"
                                      d="M 229.531,469.012 C 102.969,469.012 0,366.039 0,239.52 0,112.949 102.969,9.98047 229.531,9.98047 c 126.52,0 229.449,102.96853 229.449,229.53953 0,126.519 -102.929,229.492 -229.449,229.492 z m 0,-435.0003 c -113.32,0 -205.5505,92.1873 -205.5505,205.5083 0,113.32 92.2305,205.5 205.5505,205.5 C 342.809,445.02 435,352.84 435,239.52 435,126.199 342.809,34.0117 229.531,34.0117 Z"
                                      style="fill:#000000;fill-opacity:1;fill-rule:nonzero;stroke:none"/>
                                <path id="path24replaced5"
                                      d="m 294.301,342.09 -118.75,0 c -4.461,0 -8.012,-3.551 -8.012,-8 l 0,-184.852 c 0,-4.41 3.551,-8.008 8.012,-8.008 l 28.238,0 c 4.41,0 8.012,3.598 8.012,8.008 l 0,62.313 c 0,4.41 3.551,8 7.969,8 l 67.691,0 c 4.449,0 8.008,3.558 8.008,7.969 l 0,24.89 c 0,4.41 -3.559,7.969 -8.008,7.969 l -67.691,0 c -4.418,0 -7.969,3.59 -7.969,8 l 0,24.851 c 0,4.411 3.551,8 7.969,8 l 74.531,0 c 4.41,0 7.969,3.559 7.969,8.008 l 0,24.852 c 0.031,4.449 -3.559,8 -7.969,8 z"
                                      style="fill:#000000;fill-opacity:1;fill-rule:nonzero;stroke:none"/></g></g></g></g></svg>
            <line clip-path="url(#clipPath35)" fill="none" x1="12" x2="505"
                  y1="171" y2="171" stroke="black"/>
        </g>
        <g font-size="13" stroke-linecap="butt" fill="rgb(136,136,136)"
           font-family="&apos;Ubuntu&apos;" stroke="rgb(136,136,136)"
           stroke-width="2.1">
            <line clip-path="url(#clipPath36)" fill="none" x1="68" x2="120"
                  y1="273" y2="273"/>
            <line clip-path="url(#clipPath37)" fill="none" x1="113" x2="120"
                  y1="276" y2="273"/>
            <line clip-path="url(#clipPath37)" fill="none" x1="120" x2="113"
                  y1="273" y2="270"/>
            <line clip-path="url(#clipPath36)" fill="none" x1="191" x2="445"
                  y1="287" y2="287"/>
            <text x="205" y="273" clip-path="url(#clipPath38)" fill="black"
                  stroke="none" xml:space="preserve">[l==Loc::left]/move(lv, Angle::Right)</text>
            <line clip-path="url(#clipPath39)" fill="none" x1="438" x2="445"
                  y1="290" y2="287"/>
            <line clip-path="url(#clipPath39)" fill="none" x1="445" x2="438"
                  y1="287" y2="284"/>
            <line clip-path="url(#clipPath36)" fill="none" x1="191" x2="457"
                  y1="330" y2="330"/>
            <line clip-path="url(#clipPath36)" fill="none" x1="457" x2="457"
                  y1="330" y2="298"/>
            <text x="205" y="323" clip-path="url(#clipPath40)" fill="black"
                  stroke="none" xml:space="preserve">[l==Loc::front]/move(lv, Angle::Back)</text>
            <line clip-path="url(#clipPath41)" fill="none" x1="460" x2="457"
                  y1="305" y2="298"/>
            <line clip-path="url(#clipPath41)" fill="none" x1="457" x2="454"
                  y1="298" y2="305"/>
            <line clip-path="url(#clipPath36)" fill="none" x1="191" x2="457"
                  y1="245" y2="245"/>
            <line clip-path="url(#clipPath36)" fill="none" x1="457" x2="457"
                  y1="245" y2="275"/>
            <text x="205" y="238" clip-path="url(#clipPath42)" fill="black"
                  stroke="none" xml:space="preserve">[l==Loc::right]/move(lv, Angle::Left)</text>
            <line clip-path="url(#clipPath43)" fill="none" x1="454" x2="457"
                  y1="268" y2="275"/>
            <line clip-path="url(#clipPath43)" fill="none" x1="457" x2="460"
                  y1="275" y2="268"/>
            <line clip-path="url(#clipPath36)" fill="none" x1="191" x2="445"
                  y1="287" y2="287"/>
            <text x="205" y="273" clip-path="url(#clipPath38)" fill="black"
                  stroke="none" xml:space="preserve">[l==Loc::left]/move(lv, Angle::Right)</text>
            <line clip-path="url(#clipPath39)" fill="none" x1="438" x2="445"
                  y1="290" y2="287"/>
            <line clip-path="url(#clipPath39)" fill="none" x1="445" x2="438"
                  y1="287" y2="284"/>
            <line clip-path="url(#clipPath36)" fill="none" x1="68" x2="120"
                  y1="273" y2="273"/>
            <line clip-path="url(#clipPath37)" fill="none" x1="113" x2="120"
                  y1="276" y2="273"/>
            <line clip-path="url(#clipPath37)" fill="none" x1="120" x2="113"
                  y1="273" y2="270"/>
            <line clip-path="url(#clipPath36)" fill="none" x1="191" x2="457"
                  y1="245" y2="245"/>
            <line clip-path="url(#clipPath36)" fill="none" x1="457" x2="457"
                  y1="245" y2="275"/>
            <text x="205" y="238" clip-path="url(#clipPath42)" fill="black"
                  stroke="none" xml:space="preserve">[l==Loc::right]/move(lv, Angle::Left)</text>
            <line clip-path="url(#clipPath43)" fill="none" x1="454" x2="457"
                  y1="268" y2="275"/>
            <line clip-path="url(#clipPath43)" fill="none" x1="457" x2="460"
                  y1="275" y2="268"/>
            <line clip-path="url(#clipPath36)" fill="none" x1="191" x2="457"
                  y1="330" y2="330"/>
            <line clip-path="url(#clipPath36)" fill="none" x1="457" x2="457"
                  y1="330" y2="298"/>
            <text x="205" y="323" clip-path="url(#clipPath40)" fill="black"
                  stroke="none" xml:space="preserve">[l==Loc::front]/move(lv, Angle::Back)</text>
            <line clip-path="url(#clipPath41)" fill="none" x1="460" x2="457"
                  y1="305" y2="298"/>
            <line clip-path="url(#clipPath41)" fill="none" x1="457" x2="454"
                  y1="298" y2="305"/>
        </g>
    </g>
</svg>